<svg width="40" height="41" viewBox="0 0 40 41" fill="none" xmlns="http://www.w3.org/2000/svg">
<path fill-rule="evenodd" clip-rule="evenodd" d="M0 20.5C0 9.45431 8.95431 0.5 20 0.5C31.0457 0.5 40 9.45431 40 20.5C40 31.5457 31.0457 40.5 20 40.5C8.95431 40.5 0 31.5457 0 20.5ZM20 10.5C25.5 10.5 30 15 30 20.5C30 25.5 26.375 29.75 21.375 30.5V23.375H23.75L24.25 20.5H21.5V18.625C21.5 17.875 21.875 17.125 23.125 17.125H24.375V14.625C24.375 14.625 23.25 14.375 22.125 14.375C19.875 14.375 18.375 15.75 18.375 18.25V20.5H15.875V23.375H18.375V30.375C13.625 29.625 10 25.5 10 20.5C10 15 14.5 10.5 20 10.5Z" fill="white"/>
</svg>
