<svg width="178" height="55" viewBox="0 0 178 55" fill="none" xmlns="http://www.w3.org/2000/svg">
<path fill-rule="evenodd" clip-rule="evenodd" d="M155.748 0.0351483C155.748 0.0351483 138.378 0.202208 125.026 4.75471C118.747 6.88478 115.022 8.68073 112.636 10.5184C107.027 14.8204 107.278 21.3776 108.827 27.6425C111.171 37.1652 117.533 46.8549 126.867 50.8645C130.383 52.3681 134.946 53.3705 141.266 53.4122C151.479 53.454 159.306 51.4492 164.915 47.4814C171.151 43.096 173.998 36.497 175.923 29.4385C178.183 21.2106 179.397 10.6437 175.295 5.67357C169.938 -0.800174 155.748 0.0351483 155.748 0.0351483Z" fill="white"/>
<path fill-rule="evenodd" clip-rule="evenodd" d="M153.32 2.62465C153.32 2.62465 136.285 2.79172 123.184 7.26069C117.031 9.34899 113.347 11.1032 111.003 12.8991C105.478 17.1175 105.729 23.5495 107.236 29.6891C109.538 39.0447 115.775 48.5256 124.942 52.4934C128.416 53.9552 132.894 54.9576 139.047 54.9993C149.093 55.0411 156.753 53.0781 162.236 49.1938C168.347 44.8919 171.151 38.4182 173.035 31.485C175.253 23.4242 176.467 13.0662 172.407 8.17955C167.258 1.8311 153.32 2.62465 153.32 2.62465Z" fill="#27348B"/>
<path d="M17.5378 24.1342V39.6712H11.3849V14.9039H16.8262L30.1366 29.6473V14.9039H36.2895V39.6712H31.4342L17.5378 24.1342ZM47.1722 39.713V19.5399H38.9683V14.9457H61.9057V19.5399H53.7018V39.713H47.1722ZM64.5845 39.713V14.9457H81.1597V19.4982H70.7793V24.5519H80.6993V29.1461H70.7793V35.0352H81.4527V39.6712H64.5845V39.713ZM94.7631 25.0948C95.8932 25.0948 96.7722 24.8442 97.3163 24.3848C97.8605 23.9254 98.1534 23.1736 98.1534 22.213C98.1534 21.2941 97.8605 20.5841 97.2745 20.0829C96.6885 19.5817 95.8513 19.3311 94.7631 19.3311H91.7913V25.0948H94.7631ZM85.5965 39.713V14.9457H94.7631C98.1534 14.9457 100.623 15.5304 102.214 16.6998C103.804 17.8693 104.641 19.6652 104.641 22.1294C104.641 23.5077 104.264 24.6772 103.595 25.6378C102.883 26.5984 101.795 27.4337 100.33 28.102C100.958 28.3108 101.502 28.6867 102.004 29.2297C102.507 29.7726 102.925 30.3991 103.302 31.2344L107.236 39.713H100.246L97.107 32.571C96.6048 31.4433 96.0188 30.6497 95.3491 30.2321C94.7212 29.8144 93.7585 29.6056 92.5865 29.6056C92.5028 29.6056 92.3773 29.6056 92.2098 29.6056C92.0424 29.6056 91.9168 29.6056 91.8331 29.6056V39.6712H85.5965V39.713ZM109.162 39.713V14.9457H114.645L122.598 24.9278L130.592 14.9457H136.075V39.713H129.964V24.3848L122.598 33.448L115.273 24.3848V39.713H109.162ZM141.098 39.713V14.9457H147.502V39.713H141.098ZM161.859 25.0948C162.989 25.0948 163.868 24.8442 164.412 24.3848C164.956 23.9254 165.249 23.1736 165.249 22.213C165.249 21.2941 164.956 20.5841 164.37 20.0829C163.784 19.5817 162.947 19.3311 161.859 19.3311H158.887V25.0948H161.859ZM152.651 39.713V14.9457H161.817C165.208 14.9457 167.677 15.5304 169.268 16.6998C170.858 17.8693 171.695 19.6652 171.695 22.1294C171.695 23.5077 171.319 24.6772 170.649 25.6378C169.937 26.5984 168.849 27.4337 167.384 28.102C168.012 28.3108 168.556 28.6867 169.058 29.2297C169.561 29.7726 169.979 30.3991 170.356 31.2344L174.29 39.713H167.3L164.161 32.571C163.659 31.4433 163.073 30.6497 162.403 30.2321C161.775 29.8144 160.813 29.6056 159.641 29.6056C159.557 29.6056 159.431 29.6056 159.264 29.6056C159.097 29.6056 158.971 29.6056 158.887 29.6056V39.6712H152.651V39.713Z" fill="white"/>
<path fill-rule="evenodd" clip-rule="evenodd" d="M6.40405 39.713H0V4.50414H6.40405V39.713Z" fill="white"/>
<path fill-rule="evenodd" clip-rule="evenodd" d="M0 42.4277H174.291V44.5996H0V42.4277Z" fill="white"/>
</svg>
