<svg width="40" height="41" viewBox="0 0 40 41" fill="none" xmlns="http://www.w3.org/2000/svg">
<path fill-rule="evenodd" clip-rule="evenodd" d="M20 40.5C8.95431 40.5 0 31.5457 0 20.5C0 9.45431 8.95431 0.5 20 0.5C31.0457 0.5 40 9.45431 40 20.5C40 31.5457 31.0457 40.5 20 40.5ZM20.8648 15.5092C19.0736 16.2543 15.4936 17.7963 10.1249 20.1354C9.2531 20.4821 8.79642 20.8212 8.75485 21.1528C8.68458 21.7133 9.38643 21.934 10.3422 22.2345C10.4722 22.2754 10.6069 22.3177 10.745 22.3626C11.6853 22.6683 12.9501 23.0259 13.6077 23.0401C14.2042 23.053 14.8699 22.8071 15.6049 22.3024C20.621 18.9163 23.2104 17.2049 23.3729 17.168C23.4876 17.1419 23.6465 17.1092 23.7542 17.2049C23.8619 17.3006 23.8513 17.4819 23.8399 17.5305C23.7704 17.8269 21.0154 20.3882 19.5896 21.7137C19.1452 22.1269 18.8299 22.42 18.7654 22.487C18.6211 22.6369 18.4739 22.7788 18.3325 22.9151C17.459 23.7572 16.8039 24.3887 18.3688 25.42C19.1208 25.9156 19.7226 26.3254 20.323 26.7342C20.9786 27.1807 21.6326 27.6261 22.4787 28.1807C22.6942 28.322 22.9001 28.4688 23.1006 28.6118C23.8637 29.1557 24.5492 29.6444 25.3961 29.5665C25.8882 29.5212 26.3965 29.0585 26.6546 27.6784C27.2647 24.4169 28.464 17.3501 28.7411 14.4381C28.7654 14.1829 28.7348 13.8564 28.7103 13.7131C28.6858 13.5698 28.6345 13.3655 28.4482 13.2144C28.2276 13.0353 27.8869 12.9976 27.7346 13.0001C27.0419 13.0125 25.9792 13.382 20.8648 15.5092Z" fill="white"/>
</svg>
