<svg width="40" height="41" viewBox="0 0 40 41" fill="none" xmlns="http://www.w3.org/2000/svg">
<path fill-rule="evenodd" clip-rule="evenodd" d="M15.75 27.625C17 28.375 18.5 28.75 20 28.75C24.625 28.75 28.25 25 28.25 20.625C28.25 18.375 27.5 16.375 25.875 14.75C24.25 13.25 22.25 12.375 20 12.375C15.5 12.375 11.75 16.125 11.75 20.625C11.75 22.125 12.125 23.625 13 25L13.25 25.375L12.375 28.375L15.5 27.5L15.75 27.625ZM22.75 21.75C23 21.75 24.25 22.375 24.5 22.5C24.5389 22.5195 24.5779 22.5359 24.6163 22.5521C24.8248 22.6402 25.0195 22.7223 25.125 23.25C25.25 23.25 25.25 23.75 25 24.375C24.875 24.875 23.875 25.5 23.375 25.5C23.2903 25.5 23.2092 25.5072 23.1225 25.5148C22.6977 25.5524 22.14 25.6018 20.375 24.875C18.1844 23.9988 16.6656 21.8749 16.2392 21.2785C16.1789 21.1942 16.1405 21.1405 16.125 21.125C16.1037 21.0824 16.0607 21.0145 16.0039 20.9249C15.7274 20.4883 15.125 19.5372 15.125 18.5C15.125 17.25 15.75 16.625 16 16.375C16.25 16.125 16.5 16.125 16.625 16.125H17.125C17.25 16.125 17.5 16.125 17.625 16.5C17.875 17 18.375 18.25 18.375 18.375C18.375 18.4167 18.3889 18.4583 18.4028 18.5C18.4306 18.5833 18.4583 18.6667 18.375 18.75C18.3125 18.8125 18.2813 18.875 18.25 18.9375C18.2188 19 18.1875 19.0625 18.125 19.125L17.75 19.5C17.625 19.625 17.5 19.75 17.625 20C17.75 20.25 18.25 21.125 19 21.75C19.8439 22.4884 20.5097 22.7817 20.8473 22.9304C20.9097 22.9579 20.961 22.9805 21 23C21.25 23 21.375 23 21.5 22.875C21.5625 22.75 21.7188 22.5625 21.875 22.375C22.0312 22.1875 22.1875 22 22.25 21.875C22.375 21.625 22.5 21.625 22.75 21.75Z" fill="white"/>
<path fill-rule="evenodd" clip-rule="evenodd" d="M0 20.5C0 9.45431 8.95431 0.5 20 0.5C31.0457 0.5 40 9.45431 40 20.5C40 31.5457 31.0457 40.5 20 40.5C8.95431 40.5 0 31.5457 0 20.5ZM20 10.5C22.625 10.5 25.125 11.5 27 13.375C28.875 15.25 30 17.75 30 20.375C30 25.875 25.5 30.375 20 30.375C18.375 30.375 16.75 29.875 15.25 29.125L10 30.5L11.375 25.5C10.5 24 10 22.25 10 20.5C10 15 14.5 10.5 20 10.5Z" fill="white"/>
</svg>
